# xmcd
# 
# Track frame offsets:
#     150
#     22423
#     48827
#     76020
#     105787
#     136103
#     167556
# 
# Disc length: 2917
# 
# Revision: 1
# Processed by: cddbd v1.5.2PL0 Copyright (c) Steve Scherf et al.
# Submitted via: fre:ac v1.0.27
# 
DISCID=450b6307
DTITLE=The ACT Jubilee Concert - The ACT Jubilee Concert CD1
DYEAR=2012
DGENRE=Jazz
TTITLE0=Pasodoble
TTITLE1=Sleep Safe And Warm
TTITLE2=Svantetic
TTITLE3=The Tears Of Billie Blue
TTITLE4=Stars In Your Eyes
TTITLE5=Hymn
TTITLE6=This One Goes In Four
EXTD=YEAR: 2012
EXTT0=
EXTT1=
EXTT2=
EXTT3=
EXTT4=
EXTT5=
EXTT6=
PLAYORDER=
